<svg width="46" height="42" viewBox="0 0 46 42" fill="none" xmlns="http://www.w3.org/2000/svg">
<path d="M23 41.9999C22.5092 42.0029 22.0264 41.8864 21.6012 41.6626C21.176 41.4388 20.8237 41.1156 20.5806 40.7264L16.8485 34.8637C16.8248 34.8225 16.7861 34.7903 16.739 34.7727C16.6919 34.7551 16.6396 34.7532 16.5911 34.7673L9.43061 36.5085C8.95765 36.6222 8.4603 36.6208 7.98815 36.5043C7.516 36.3878 7.08555 36.1604 6.73971 35.8446C6.39388 35.5289 6.14474 35.1359 6.01715 34.7049C5.88955 34.2739 5.88796 33.8198 6.01252 33.388L7.93777 26.8086C7.95131 26.7643 7.94829 26.7172 7.92917 26.6746C7.91006 26.6321 7.87595 26.5965 7.83224 26.5737L1.39759 23.1923C0.972669 22.9684 0.619811 22.6462 0.374482 22.2583C0.129154 21.8704 0 21.4303 0 20.9824C0 20.5344 0.129154 20.0944 0.374482 19.7065C0.619811 19.3185 0.972669 18.9964 1.39759 18.7724L7.81422 15.384C7.85826 15.3615 7.89265 15.326 7.9118 15.2833C7.93096 15.2407 7.93376 15.1934 7.91975 15.1491L6.01252 8.61198C5.88796 8.1802 5.88955 7.72615 6.01715 7.29511C6.14474 6.86407 6.39388 6.47109 6.73971 6.15536C7.08555 5.83963 7.516 5.61219 7.98815 5.4957C8.4603 5.37922 8.95765 5.37776 9.43061 5.49148L16.6374 7.24911C16.686 7.26027 16.7372 7.25694 16.7835 7.2396C16.8298 7.22227 16.8688 7.19183 16.8948 7.15277L20.5986 1.27833C20.84 0.890949 21.1892 0.568691 21.6109 0.344209C22.0326 0.119728 22.5118 0.000999378 23 5.37227e-05C23.4908 -0.00286965 23.9736 0.113565 24.3988 0.337392C24.824 0.56122 25.1763 0.884369 25.4194 1.27363L29.1515 7.13632C29.1752 7.17746 29.2139 7.20968 29.261 7.2273C29.3081 7.24493 29.3604 7.24682 29.4089 7.23266L36.5694 5.49148C37.0423 5.37776 37.5397 5.37922 38.0118 5.4957C38.484 5.61219 38.9145 5.83963 39.2603 6.15536C39.6061 6.47109 39.8553 6.86407 39.9829 7.29511C40.1104 7.72615 40.112 8.1802 39.9875 8.61198L38.0622 15.1914C38.0482 15.2356 38.051 15.283 38.0702 15.3256C38.0893 15.3683 38.1237 15.4038 38.1678 15.4263L44.6024 18.8077C45.0273 19.0316 45.3802 19.3538 45.6255 19.7417C45.8708 20.1296 46 20.5697 46 21.0176C46 21.4656 45.8708 21.9056 45.6255 22.2935C45.3802 22.6815 45.0273 23.0036 44.6024 23.2276L38.1858 26.616C38.1424 26.6391 38.1085 26.6747 38.0895 26.7172C38.0704 26.7596 38.0672 26.8066 38.0802 26.8509L40.0055 33.3927C40.1304 33.8259 40.1283 34.2814 39.9995 34.7136C39.8707 35.1458 39.6196 35.5395 39.2715 35.8551C38.9234 36.1708 38.4905 36.3973 38.0162 36.512C37.542 36.6267 37.043 36.6255 36.5694 36.5085L29.3626 34.7509C29.314 34.7389 29.2625 34.7419 29.216 34.7593C29.1695 34.7767 29.1306 34.8076 29.1052 34.8472L25.4014 40.7217C25.1585 41.1115 24.8065 41.4353 24.3813 41.6599C23.9562 41.8846 23.4732 42.0019 22.982 41.9999H23ZM16.6529 32.4035C17.1434 32.4036 17.6254 32.521 18.0508 32.744C18.4762 32.967 18.8301 33.2879 19.0774 33.6747L22.8044 39.5491C22.8231 39.5807 22.851 39.6069 22.8851 39.6248C22.9192 39.6426 22.9581 39.6514 22.9974 39.6502C23.0363 39.6512 23.0748 39.6423 23.1085 39.6245C23.1421 39.6066 23.1696 39.5805 23.1879 39.5491L26.8943 33.6747C27.2005 33.1872 27.6749 32.8059 28.2434 32.5904C28.8119 32.3749 29.4425 32.3373 30.0369 32.4834L37.2437 34.2386C37.2815 34.2475 37.3211 34.2473 37.3587 34.2379C37.3963 34.2286 37.4306 34.2104 37.4581 34.1853C37.4857 34.1601 37.5056 34.1288 37.5158 34.0945C37.5261 34.0602 37.5263 34.024 37.5166 33.9896L35.5939 27.4454C35.4343 26.9042 35.4738 26.3301 35.7063 25.8114C35.9388 25.2926 36.3515 24.8579 36.8808 24.574L43.3155 21.1715C43.3498 21.154 43.3783 21.1284 43.3982 21.0974C43.418 21.0664 43.4285 21.0312 43.4285 20.9953C43.4285 20.9594 43.418 20.9242 43.3982 20.8932C43.3783 20.8622 43.3498 20.8366 43.3155 20.8191L36.8808 17.4377C36.3478 17.1573 35.931 16.7241 35.695 16.2054C35.4591 15.6866 35.4172 15.1113 35.5759 14.5687L37.4986 7.98929C37.5104 7.95523 37.5114 7.91879 37.5013 7.88425C37.4913 7.84971 37.4707 7.81849 37.4419 7.79426C37.4142 7.76809 37.3792 7.74925 37.3407 7.73974C37.3022 7.73022 37.2616 7.73039 37.2231 7.74021L30.0575 9.4955C29.4647 9.64157 28.8357 9.6057 28.2674 9.39341C27.699 9.18112 27.2229 8.80417 26.9123 8.32061L23.1853 2.44617C23.1666 2.41654 23.1395 2.39199 23.107 2.37506C23.0744 2.35813 23.0375 2.34942 23 2.34983C22.9611 2.34876 22.9226 2.35765 22.889 2.37551C22.8553 2.39337 22.8278 2.41947 22.8095 2.45087L19.1032 8.32531C18.7955 8.81214 18.3206 9.19274 17.7519 9.40813C17.1833 9.62352 16.5527 9.66166 15.9579 9.51665L8.75111 7.76136C8.71338 7.75246 8.67376 7.7527 8.63616 7.76206C8.59857 7.77143 8.5643 7.78958 8.53675 7.81474C8.50919 7.83989 8.4893 7.87118 8.47905 7.9055C8.46879 7.93982 8.46853 7.976 8.47828 8.01044L10.4138 14.5475C10.5734 15.0887 10.5339 15.6628 10.3014 16.1816C10.0689 16.7003 9.65626 17.1351 9.12689 17.4189L2.69224 20.8214C2.65532 20.8373 2.62424 20.8626 2.60277 20.8943C2.5813 20.926 2.57036 20.9627 2.57127 21C2.57009 21.0355 2.57984 21.0706 2.5994 21.1014C2.61896 21.1321 2.64755 21.1572 2.68195 21.1739L9.1166 24.5576C9.64934 24.8383 10.0659 25.2715 10.3018 25.7902C10.5377 26.3088 10.5798 26.884 10.4215 27.4266L8.49887 34.006C8.48703 34.0401 8.48606 34.0765 8.49609 34.111C8.50612 34.1456 8.52673 34.1768 8.5555 34.201C8.5834 34.227 8.61838 34.2457 8.65684 34.2552C8.6953 34.2647 8.73584 34.2647 8.77427 34.2551L15.9399 32.4998C16.1719 32.4395 16.4116 32.4071 16.6529 32.4035Z" fill="white"/>
</svg>
