<svg width="181" height="212" viewBox="0 0 181 212" fill="none" xmlns="http://www.w3.org/2000/svg">
<ellipse cx="90" cy="113.5" rx="40" ry="39.5" fill="#FFC805"/>
<path fill-rule="evenodd" clip-rule="evenodd" d="M3.73829e-06 124.913L179.9 124C178.562 172.324 139.092 211.208 90.3912 211.455C41.6902 211.702 1.82762 173.221 3.73829e-06 124.913Z" fill="url(#paint0_linear_45_33)"/>
<g filter="url(#filter0_f_45_33)">
<path d="M53 128.167H116.923C118.672 127.914 120.534 127.977 121.982 128.167H116.923C113.426 128.675 110.383 130.452 112.018 135.021C115.084 143.587 136.545 141.303 121.982 145.872C114.363 148.262 109.825 151.108 107.383 153.324C105.724 154.83 106.039 157.217 107.502 158.913L109.994 161.801C111.062 163.038 110.784 164.935 109.407 165.815C107.117 167.277 103.107 164.216 102.24 161.641C101.498 159.436 99.8402 157.416 96.6886 156.151C92.7566 154.574 86.798 154.228 80.9103 154.443C71.6757 154.78 65.045 149.25 70.4826 141.779C70.9966 141.072 71.5552 140.343 72.1617 139.589C79.5197 130.452 62.4531 128.167 53 128.167Z" fill="#FFC805"/>
</g>
<line x1="91" y1="52" x2="91" y2="70" stroke="#FFC805" stroke-width="2"/>
<line x1="106.485" y1="53.251" x2="101.968" y2="70.6749" stroke="#FFC805" stroke-width="2"/>
<line x1="124.739" y1="61.5924" x2="113.806" y2="76.4626" stroke="#FFC805" stroke-width="2"/>
<line x1="137.833" y1="72.769" x2="123.639" y2="84.5674" stroke="#FFC805" stroke-width="2"/>
<line x1="145.495" y1="82.8076" x2="130.59" y2="93.6926" stroke="#FFC805" stroke-width="2"/>
<g filter="url(#filter1_d_45_33)">
<path d="M23.2053 53.6016L5.23579 29.2955L10.537 27.2907L23.0014 45.4325L23.2538 45.3371L20.9268 23.3616L25.7497 21.5378L38.5646 39.5622L38.8038 39.4718L36.1396 17.6087L41.4408 15.6039L44.0514 45.7183L39.1886 47.5572L26.5212 30.5249L26.3086 30.6053L28.068 51.7626L23.2053 53.6016Z" fill="#147CAC"/>
<path d="M60.4316 12.5108L65.4443 41.1666L60.2533 42.0747L55.2405 13.4189L60.4316 12.5108Z" fill="#147CAC"/>
<path d="M98.6138 9.96625L99.1441 39.0523L94.4573 39.1378L80.391 19.5756L80.1496 19.58L80.5108 39.392L75.2418 39.4881L74.7115 10.402L79.4266 10.3161L93.479 29.8927L93.7346 29.888L93.3732 10.0618L98.6138 9.96625Z" fill="#147CAC"/>
<path d="M118.812 41.8102L109.134 39.9348L114.669 11.3752L124.542 13.2884C127.377 13.8378 129.702 14.8816 131.517 16.4196C133.342 17.9502 134.597 19.8862 135.282 22.2277C135.966 24.5693 136.021 27.2229 135.446 30.1885C134.87 33.1635 133.821 35.6129 132.3 37.5368C130.789 39.4625 128.886 40.7962 126.591 41.538C124.306 42.2815 121.713 42.3723 118.812 41.8102ZM115.175 36.461L119.429 37.2852C121.418 37.6707 123.148 37.6297 124.618 37.1622C126.09 36.6853 127.301 35.7866 128.251 34.466C129.203 33.1362 129.891 31.3788 130.314 29.1941C130.738 27.0094 130.754 25.1316 130.364 23.5609C129.976 21.9809 129.196 20.706 128.024 19.7361C126.862 18.7588 125.315 18.0827 123.381 17.708L118.975 16.8541L115.175 36.461Z" fill="#147CAC"/>
<path d="M150.684 19.5864L156.17 21.8931L157.742 36.5147L158.004 36.6248L169.552 27.5196L175.039 29.8264L158.215 42.5379L154.009 52.5419L149.164 50.5049L153.37 40.5009L150.684 19.5864Z" fill="#147CAC"/>
</g>
<line x1="73.7463" y1="53.0887" x2="78.2213" y2="70.5235" stroke="#FFC805" stroke-width="2"/>
<line x1="57.8828" y1="59.5303" x2="66.3379" y2="75.4209" stroke="#FFC805" stroke-width="2"/>
<line x1="44.7527" y1="72.3416" x2="56.6041" y2="85.8894" stroke="#FFC805" stroke-width="2"/>
<line x1="34.6153" y1="84.2117" x2="48.8051" y2="95.2863" stroke="#FFC805" stroke-width="2"/>
<line x1="30.4839" y1="97.1249" x2="46.2361" y2="105.835" stroke="#FFC805" stroke-width="2"/>
<line x1="29.2961" y1="112.045" x2="46.489" y2="117.374" stroke="#FFC805" stroke-width="2"/>
<line x1="152.374" y1="113.987" x2="134.163" y2="116.987" stroke="#FFC805" stroke-width="2"/>
<line x1="151.708" y1="98.9411" x2="134.338" y2="105.181" stroke="#FFC805" stroke-width="2"/>
<defs>
<filter id="filter0_f_45_33" x="49" y="124" width="82" height="46.1938" filterUnits="userSpaceOnUse" color-interpolation-filters="sRGB">
<feFlood flood-opacity="0" result="BackgroundImageFix"/>
<feBlend mode="normal" in="SourceGraphic" in2="BackgroundImageFix" result="shape"/>
<feGaussianBlur stdDeviation="2" result="effect1_foregroundBlur_45_33"/>
</filter>
<filter id="filter1_d_45_33" x="1.23578" y="9.96631" width="177.803" height="54.6771" filterUnits="userSpaceOnUse" color-interpolation-filters="sRGB">
<feFlood flood-opacity="0" result="BackgroundImageFix"/>
<feColorMatrix in="SourceAlpha" type="matrix" values="0 0 0 0 0 0 0 0 0 0 0 0 0 0 0 0 0 0 127 0" result="hardAlpha"/>
<feOffset dy="4"/>
<feGaussianBlur stdDeviation="2"/>
<feComposite in2="hardAlpha" operator="out"/>
<feColorMatrix type="matrix" values="0 0 0 0 0 0 0 0 0 0 0 0 0 0 0 0 0 0 0.25 0"/>
<feBlend mode="normal" in2="BackgroundImageFix" result="effect1_dropShadow_45_33"/>
<feBlend mode="normal" in="SourceGraphic" in2="effect1_dropShadow_45_33" result="shape"/>
</filter>
<linearGradient id="paint0_linear_45_33" x1="90.3913" y1="211.455" x2="89.9498" y2="124.456" gradientUnits="userSpaceOnUse">
<stop stop-color="#0E15AD"/>
<stop offset="1" stop-color="#D6D6DC"/>
</linearGradient>
</defs>
</svg>
