<svg width="54" height="47" viewBox="0 0 54 47" fill="none" xmlns="http://www.w3.org/2000/svg">
<g clip-path="url(#clip0_47_70)">
<mask id="mask0_47_70" style="mask-type:luminance" maskUnits="userSpaceOnUse" x="0" y="0" width="54" height="47">
<path d="M0 0H54V47H0V0Z" fill="white"/>
<path fill-rule="evenodd" clip-rule="evenodd" d="M23.4173 16.3127C23.7587 14.9052 24.4808 13.5889 25.5236 12.4728C26.5664 11.3568 27.8998 10.4732 29.4133 9.89536C30.3791 9.52478 30.1693 8.2829 29.1226 8.17082C20.0776 7.20552 11.6245 12.437 9.71373 20.2571C7.68457 28.5724 13.7679 36.7432 23.3051 38.5093C32.8423 40.2736 42.2197 34.9626 44.2509 26.6472C44.5488 25.4317 44.6771 24.1892 44.633 22.9469C44.5998 22.0268 43.1917 21.7339 42.6828 22.542C41.6105 24.2482 39.9349 25.6082 37.9046 26.4203C35.8743 27.2324 33.5973 27.4533 31.4113 27.0504C28.7153 26.5491 26.3585 25.1362 24.8593 23.1225C23.3601 21.1088 22.8414 18.6592 23.4173 16.3127ZM11.745 20.6331C12.4332 17.8094 14.1363 15.2498 16.6075 13.3248C19.0787 11.3998 22.1897 10.2095 25.49 9.92609C23.436 11.4518 21.9717 13.5415 21.386 15.9367C21.0442 17.3309 21.0213 18.77 21.3185 20.1719C21.6158 21.5738 22.2274 22.911 23.1184 24.1072C24.0094 25.3034 25.1624 26.3351 26.5116 27.1434C27.8607 27.9518 29.3796 28.5209 30.9814 28.8183C32.9919 29.1899 35.0767 29.1229 37.0501 28.6233C39.0236 28.1237 40.8245 27.207 42.2923 25.9549C42.2695 26.0606 42.2453 26.166 42.2197 26.2712C40.4273 33.6105 32.1528 38.2978 23.7371 36.7414C15.3235 35.1832 9.95465 27.9741 11.747 20.6349" fill="black"/>
</mask>
<g mask="url(#mask0_47_70)">
<path d="M27 47C41.9117 47 54 36.4787 54 23.5C54 10.5213 41.9117 0 27 0C12.0883 0 0 10.5213 0 23.5C0 36.4787 12.0883 47 27 47Z" fill="black"/>
</g>
</g>
<defs>
<clipPath id="clip0_47_70">
<rect width="54" height="47" fill="white"/>
</clipPath>
</defs>
</svg>
