<svg width="181" height="205" viewBox="0 0 181 205" fill="none" xmlns="http://www.w3.org/2000/svg">
<ellipse cx="90.6796" cy="110.584" rx="39.6796" ry="38.5845" fill="#FFC805"/>
<path fill-rule="evenodd" clip-rule="evenodd" d="M2.00002 119.892L180.444 119.012C179.131 166.228 139.98 204.219 91.6676 204.457C43.355 204.695 3.8082 167.092 2.00002 119.892Z" fill="url(#paint0_linear_45_573)"/>
<line x1="62.8828" y1="55.5303" x2="71.3379" y2="71.4209" stroke="#FFC805" stroke-width="2"/>
<line y1="-1" x2="17.6001" y2="-1" transform="matrix(-0.254608 0.967044 -0.968923 -0.247361 114.481 55)" stroke="#FFC805" stroke-width="2"/>
<line x1="90" y1="49" x2="90" y2="66.5828" stroke="#FFC805" stroke-width="2"/>
<line x1="47.7866" y1="70.3825" x2="57.6379" y2="82.9303" stroke="#FFC805" stroke-width="2"/>
<line y1="-1" x2="18.1952" y2="-1" transform="matrix(-0.773818 0.633408 -0.645056 -0.764135 136.08 70)" stroke="#FFC805" stroke-width="2"/>
<line y1="-1" x2="18.2122" y2="-1" transform="matrix(-0.811879 0.583825 -0.595677 -0.803224 145.786 86)" stroke="#FFC805" stroke-width="2"/>
<line x1="35.6153" y1="86.2117" x2="49.8051" y2="97.2863" stroke="#FFC805" stroke-width="2"/>
<line x1="28.2692" y1="103.037" x2="45.6047" y2="107.883" stroke="#FFC805" stroke-width="2"/>
<line x1="150.871" y1="103.9" x2="133.392" y2="109.825" stroke="#FFC805" stroke-width="2"/>
<g filter="url(#filter0_f_45_573)">
<path d="M52 125.164H115.411C117.146 124.916 118.993 124.978 120.429 125.164H115.411C111.942 125.659 108.923 127.395 110.545 131.858C113.586 140.226 134.876 137.994 120.429 142.457C112.872 144.792 108.371 147.572 105.948 149.737C104.309 151.201 104.617 153.543 106.066 155.196L108.503 157.979C109.575 159.202 109.299 161.093 107.923 161.958C105.657 163.383 101.71 160.332 100.827 157.806C100.082 155.674 98.4385 153.724 95.3386 152.499C91.4362 150.957 85.5216 150.62 79.6783 150.831C70.5072 151.161 63.9728 145.668 69.4545 138.309C69.9333 137.666 70.4503 137.003 71.0082 136.321C78.3073 127.395 61.3774 125.164 52 125.164Z" fill="#FFC805"/>
</g>
<g filter="url(#filter1_d_45_573)">
<path d="M23.0497 54.9835L4.63333 30.9129L9.92028 28.8708L22.7151 46.8448L22.9669 46.7475L20.2822 24.8686L25.0921 23.0108L38.2367 40.8649L38.4752 40.7728L35.454 19.0086L40.741 16.9665L43.8398 46.9535L38.9901 48.8266L26.0092 31.96L25.7972 32.0418L27.8994 53.1103L23.0497 54.9835Z" fill="#147CAC"/>
<path d="M59.209 13.8709L64.6438 42.4496L59.4616 43.4071L54.0268 14.8283L59.209 13.8709Z" fill="#147CAC"/>
<path d="M97.1643 10.941L98.0551 40.0183L93.3697 40.1592L79.0617 20.7652L78.8203 20.7724L79.4271 40.5785L74.1596 40.7369L73.2688 11.6596L77.9826 11.5179L92.2768 30.9265L92.5324 30.9188L91.9251 11.0986L97.1643 10.941Z" fill="#147CAC"/>
<path d="M117.302 42.4656L107.597 40.7353L112.868 12.1259L122.769 13.8911C125.612 14.398 127.949 15.4063 129.78 16.9158C131.621 18.4176 132.896 20.3329 133.603 22.6617C134.31 24.9905 134.39 27.6404 133.843 30.6112C133.294 33.5914 132.267 36.0535 130.763 37.9977C129.268 39.9436 127.376 41.3039 125.086 42.0787C122.805 42.8552 120.211 42.9842 117.302 42.4656ZM113.611 37.1761L117.876 37.9366C119.871 38.2922 121.602 38.2257 123.069 37.737C124.538 37.239 125.742 36.3234 126.681 34.9902C127.621 33.6478 128.293 31.8823 128.696 29.6937C129.1 27.5052 129.099 25.6293 128.693 24.0661C128.29 22.4936 127.497 21.2316 126.314 20.2802C125.143 19.3211 123.588 18.6687 121.649 18.3229L117.23 17.5351L113.611 37.1761Z" fill="#147CAC"/>
<path d="M148.635 19.6833L154.161 21.8932L155.859 36.4315L156.123 36.537L167.64 27.2834L173.166 29.4933L156.382 42.4232L152.242 52.4547L147.362 50.5032L151.502 40.4718L148.635 19.6833Z" fill="#147CAC"/>
</g>
<defs>
<filter id="filter0_f_45_573" x="48" y="121" width="81.4072" height="45.3219" filterUnits="userSpaceOnUse" color-interpolation-filters="sRGB">
<feFlood flood-opacity="0" result="BackgroundImageFix"/>
<feBlend mode="normal" in="SourceGraphic" in2="BackgroundImageFix" result="shape"/>
<feGaussianBlur stdDeviation="2" result="effect1_foregroundBlur_45_573"/>
</filter>
<filter id="filter1_d_45_573" x="0.633331" y="10.941" width="176.533" height="55.0006" filterUnits="userSpaceOnUse" color-interpolation-filters="sRGB">
<feFlood flood-opacity="0" result="BackgroundImageFix"/>
<feColorMatrix in="SourceAlpha" type="matrix" values="0 0 0 0 0 0 0 0 0 0 0 0 0 0 0 0 0 0 127 0" result="hardAlpha"/>
<feOffset dy="4"/>
<feGaussianBlur stdDeviation="2"/>
<feComposite in2="hardAlpha" operator="out"/>
<feColorMatrix type="matrix" values="0 0 0 0 0 0 0 0 0 0 0 0 0 0 0 0 0 0 0.25 0"/>
<feBlend mode="normal" in2="BackgroundImageFix" result="effect1_dropShadow_45_573"/>
<feBlend mode="normal" in="SourceGraphic" in2="effect1_dropShadow_45_573" result="shape"/>
</filter>
<linearGradient id="paint0_linear_45_573" x1="91.6603" y1="204.457" x2="91.2355" y2="119.446" gradientUnits="userSpaceOnUse">
<stop stop-color="#0E15AD"/>
<stop offset="1" stop-color="#D6D6DC"/>
</linearGradient>
</defs>
</svg>
